<mxfile host="app.diagrams.net" modified="2025-01-09T19:10:25.000Z" agent="draw.io" etag="jenkins-pipeline" version="24.7.17">
  <diagram name="Jenkins Pipeline" id="jenkins-pipeline-flow">
    <mxGraphModel dx="1422" dy="794" grid="1" gridSize="10" guides="1" tooltips="1" connect="1" arrows="1" fold="1" page="1" pageScale="1" pageWidth="1169" pageHeight="827" math="0" shadow="0">
      <root>
        <mxCell id="0" />
        <mxCell id="1" parent="0" />
        
        <!-- Pipeline Start -->
        <mxCell id="start" value="Pipeline Triggered" style="ellipse;whiteSpace=wrap;html=1;fillColor=#d5e8d4;strokeColor=#82b366;fontSize=12;fontStyle=1;" vertex="1" parent="1">
          <mxGeometry x="50" y="100" width="120" height="60" as="geometry" />
        </mxCell>
        
        <!-- Source Control -->
        <mxCell id="scm" value="Source Control&#xa;Checkout" style="rounded=1;whiteSpace=wrap;html=1;fillColor=#e1d5e7;strokeColor=#9673a6;fontSize=12;" vertex="1" parent="1">
          <mxGeometry x="220" y="85" width="120" height="90" as="geometry" />
        </mxCell>
        
        <!-- Build Stage -->
        <mxCell id="build" value="Build&#xa;Application" style="rounded=1;whiteSpace=wrap;html=1;fillColor=#fff2cc;strokeColor=#d6b656;fontSize=12;" vertex="1" parent="1">
          <mxGeometry x="390" y="85" width="120" height="90" as="geometry" />
        </mxCell>
        
        <!-- Unit Tests -->
        <mxCell id="unit-tests" value="Run Unit Tests" style="rounded=1;whiteSpace=wrap;html=1;fillColor=#dae8fc;strokeColor=#6c8ebf;fontSize=12;" vertex="1" parent="1">
          <mxGeometry x="560" y="85" width="120" height="90" as="geometry" />
        </mxCell>
        
        <!-- Code Analysis -->
        <mxCell id="code-analysis" value="Code Quality&#xa;Analysis" style="rounded=1;whiteSpace=wrap;html=1;fillColor=#f8cecc;strokeColor=#b85450;fontSize=12;" vertex="1" parent="1">
          <mxGeometry x="730" y="85" width="120" height="90" as="geometry" />
        </mxCell>
        
        <!-- Security Scan -->
        <mxCell id="security-scan" value="Security&#xa;Scan" style="rounded=1;whiteSpace=wrap;html=1;fillColor=#ffcc99;strokeColor=#d79b00;fontSize=12;" vertex="1" parent="1">
          <mxGeometry x="900" y="85" width="120" height="90" as="geometry" />
        </mxCell>
        
        <!-- Decision Diamond -->
        <mxCell id="tests-pass" value="All Tests&#xa;Pass?" style="rhombus;whiteSpace=wrap;html=1;fillColor=#ffe6cc;strokeColor=#d79b00;fontSize=12;" vertex="1" parent="1">
          <mxGeometry x="570" y="220" width="100" height="80" as="geometry" />
        </mxCell>
        
        <!-- Deploy to Staging -->
        <mxCell id="deploy-staging" value="Deploy to&#xa;Staging" style="rounded=1;whiteSpace=wrap;html=1;fillColor=#d5e8d4;strokeColor=#82b366;fontSize=12;" vertex="1" parent="1">
          <mxGeometry x="560" y="340" width="120" height="90" as="geometry" />
        </mxCell>
        
        <!-- Integration Tests -->
        <mxCell id="integration-tests" value="Integration&#xa;Tests" style="rounded=1;whiteSpace=wrap;html=1;fillColor=#dae8fc;strokeColor=#6c8ebf;fontSize=12;" vertex="1" parent="1">
          <mxGeometry x="560" y="470" width="120" height="90" as="geometry" />
        </mxCell>
        
        <!-- Approval Gate -->
        <mxCell id="approval" value="Manual&#xa;Approval" style="rounded=1;whiteSpace=wrap;html=1;fillColor=#ffcc99;strokeColor=#d79b00;fontSize=12;" vertex="1" parent="1">
          <mxGeometry x="390" y="470" width="120" height="90" as="geometry" />
        </mxCell>
        
        <!-- Deploy to Production -->
        <mxCell id="deploy-prod" value="Deploy to&#xa;Production" style="rounded=1;whiteSpace=wrap;html=1;fillColor=#d5e8d4;strokeColor=#82b366;fontSize=12;" vertex="1" parent="1">
          <mxGeometry x="220" y="470" width="120" height="90" as="geometry" />
        </mxCell>
        
        <!-- Success End -->
        <mxCell id="success" value="Pipeline&#xa;Success" style="ellipse;whiteSpace=wrap;html=1;fillColor=#d5e8d4;strokeColor=#82b366;fontSize=12;fontStyle=1;" vertex="1" parent="1">
          <mxGeometry x="50" y="485" width="120" height="60" as="geometry" />
        </mxCell>
        
        <!-- Failure End -->
        <mxCell id="failure" value="Pipeline&#xa;Failed" style="ellipse;whiteSpace=wrap;html=1;fillColor=#f8cecc;strokeColor=#b85450;fontSize=12;fontStyle=1;" vertex="1" parent="1">
          <mxGeometry x="750" y="230" width="120" height="60" as="geometry" />
        </mxCell>
        
        <!-- Notification -->
        <mxCell id="notification" value="Send&#xa;Notifications" style="rounded=1;whiteSpace=wrap;html=1;fillColor=#e1d5e7;strokeColor=#9673a6;fontSize=12;" vertex="1" parent="1">
          <mxGeometry x="50" y="340" width="120" height="90" as="geometry" />
        </mxCell>
        
        <!-- Arrows -->
        <mxCell id="arrow1" style="edgeStyle=orthogonalEdgeStyle;rounded=0;orthogonalLoop=1;jettySize=auto;html=1;exitX=1;exitY=0.5;exitDx=0;exitDy=0;entryX=0;entryY=0.5;entryDx=0;entryDy=0;" edge="1" parent="1" source="start" target="scm">
          <mxGeometry relative="1" as="geometry" />
        </mxCell>
        
        <mxCell id="arrow2" style="edgeStyle=orthogonalEdgeStyle;rounded=0;orthogonalLoop=1;jettySize=auto;html=1;exitX=1;exitY=0.5;exitDx=0;exitDy=0;entryX=0;entryY=0.5;entryDx=0;entryDy=0;" edge="1" parent="1" source="scm" target="build">
          <mxGeometry relative="1" as="geometry" />
        </mxCell>
        
        <mxCell id="arrow3" style="edgeStyle=orthogonalEdgeStyle;rounded=0;orthogonalLoop=1;jettySize=auto;html=1;exitX=1;exitY=0.5;exitDx=0;exitDy=0;entryX=0;entryY=0.5;entryDx=0;entryDy=0;" edge="1" parent="1" source="build" target="unit-tests">
          <mxGeometry relative="1" as="geometry" />
        </mxCell>
        
        <mxCell id="arrow4" style="edgeStyle=orthogonalEdgeStyle;rounded=0;orthogonalLoop=1;jettySize=auto;html=1;exitX=1;exitY=0.5;exitDx=0;exitDy=0;entryX=0;entryY=0.5;entryDx=0;entryDy=0;" edge="1" parent="1" source="unit-tests" target="code-analysis">
          <mxGeometry relative="1" as="geometry" />
        </mxCell>
        
        <mxCell id="arrow5" style="edgeStyle=orthogonalEdgeStyle;rounded=0;orthogonalLoop=1;jettySize=auto;html=1;exitX=1;exitY=0.5;exitDx=0;exitDy=0;entryX=0;entryY=0.5;entryDx=0;entryDy=0;" edge="1" parent="1" source="code-analysis" target="security-scan">
          <mxGeometry relative="1" as="geometry" />
        </mxCell>
        
        <mxCell id="arrow6" style="edgeStyle=orthogonalEdgeStyle;rounded=0;orthogonalLoop=1;jettySize=auto;html=1;exitX=0.5;exitY=1;exitDx=0;exitDy=0;entryX=0.5;entryY=0;entryDx=0;entryDy=0;" edge="1" parent="1" source="unit-tests" target="tests-pass">
          <mxGeometry relative="1" as="geometry" />
        </mxCell>
        
        <mxCell id="arrow7" style="edgeStyle=orthogonalEdgeStyle;rounded=0;orthogonalLoop=1;jettySize=auto;html=1;exitX=0.5;exitY=1;exitDx=0;exitDy=0;entryX=0.5;entryY=0;entryDx=0;entryDy=0;" edge="1" parent="1" source="tests-pass" target="deploy-staging">
          <mxGeometry relative="1" as="geometry" />
        </mxCell>
        
        <mxCell id="arrow8" style="edgeStyle=orthogonalEdgeStyle;rounded=0;orthogonalLoop=1;jettySize=auto;html=1;exitX=1;exitY=0.5;exitDx=0;exitDy=0;entryX=0;entryY=0.5;entryDx=0;entryDy=0;" edge="1" parent="1" source="tests-pass" target="failure">
          <mxGeometry relative="1" as="geometry" />
        </mxCell>
        
        <mxCell id="arrow9" style="edgeStyle=orthogonalEdgeStyle;rounded=0;orthogonalLoop=1;jettySize=auto;html=1;exitX=0.5;exitY=1;exitDx=0;exitDy=0;entryX=0.5;entryY=0;entryDx=0;entryDy=0;" edge="1" parent="1" source="deploy-staging" target="integration-tests">
          <mxGeometry relative="1" as="geometry" />
        </mxCell>
        
        <mxCell id="arrow10" style="edgeStyle=orthogonalEdgeStyle;rounded=0;orthogonalLoop=1;jettySize=auto;html=1;exitX=0;exitY=0.5;exitDx=0;exitDy=0;entryX=1;entryY=0.5;entryDx=0;entryDy=0;" edge="1" parent="1" source="integration-tests" target="approval">
          <mxGeometry relative="1" as="geometry" />
        </mxCell>
        
        <mxCell id="arrow11" style="edgeStyle=orthogonalEdgeStyle;rounded=0;orthogonalLoop=1;jettySize=auto;html=1;exitX=0;exitY=0.5;exitDx=0;exitDy=0;entryX=1;entryY=0.5;entryDx=0;entryDy=0;" edge="1" parent="1" source="approval" target="deploy-prod">
          <mxGeometry relative="1" as="geometry" />
        </mxCell>
        
        <mxCell id="arrow12" style="edgeStyle=orthogonalEdgeStyle;rounded=0;orthogonalLoop=1;jettySize=auto;html=1;exitX=0;exitY=0.5;exitDx=0;exitDy=0;entryX=1;entryY=0.5;entryDx=0;entryDy=0;" edge="1" parent="1" source="deploy-prod" target="success">
          <mxGeometry relative="1" as="geometry" />
        </mxCell>
        
        <mxCell id="arrow13" style="edgeStyle=orthogonalEdgeStyle;rounded=0;orthogonalLoop=1;jettySize=auto;html=1;exitX=0.5;exitY=0;exitDx=0;exitDy=0;entryX=0.5;entryY=1;entryDx=0;entryDy=0;" edge="1" parent="1" source="success" target="notification">
          <mxGeometry relative="1" as="geometry" />
        </mxCell>
        
        <!-- Labels for arrows -->
        <mxCell id="yes-label" value="Yes" style="text;html=1;strokeColor=none;fillColor=none;align=center;verticalAlign=middle;whiteSpace=wrap;rounded=0;fontSize=10;" vertex="1" parent="1">
          <mxGeometry x="625" y="300" width="30" height="20" as="geometry" />
        </mxCell>
        
        <mxCell id="no-label" value="No" style="text;html=1;strokeColor=none;fillColor=none;align=center;verticalAlign=middle;whiteSpace=wrap;rounded=0;fontSize=10;" vertex="1" parent="1">
          <mxGeometry x="690" y="240" width="30" height="20" as="geometry" />
        </mxCell>
        
        <!-- Trigger types -->
        <mxCell id="triggers" value="Triggers:&#xa;• Git Push&#xa;• Pull Request&#xa;• Scheduled&#xa;• Manual" style="rounded=0;whiteSpace=wrap;html=1;fillColor=#f5f5f5;strokeColor=#666666;fontSize=10;align=left;verticalAlign=top;" vertex="1" parent="1">
          <mxGeometry x="50" y="10" width="100" height="80" as="geometry" />
        </mxCell>
        
        <!-- Legend -->
        <mxCell id="legend-title" value="Stage Types" style="text;html=1;strokeColor=none;fillColor=none;align=center;verticalAlign=middle;whiteSpace=wrap;rounded=0;fontSize=12;fontStyle=1;" vertex="1" parent="1">
          <mxGeometry x="900" y="300" width="80" height="20" as="geometry" />
        </mxCell>
        
        <mxCell id="legend-build" value="Build" style="rounded=1;whiteSpace=wrap;html=1;fillColor=#fff2cc;strokeColor=#d6b656;fontSize=10;" vertex="1" parent="1">
          <mxGeometry x="900" y="330" width="60" height="25" as="geometry" />
        </mxCell>
        
        <mxCell id="legend-test" value="Test" style="rounded=1;whiteSpace=wrap;html=1;fillColor=#dae8fc;strokeColor=#6c8ebf;fontSize=10;" vertex="1" parent="1">
          <mxGeometry x="900" y="365" width="60" height="25" as="geometry" />
        </mxCell>
        
        <mxCell id="legend-quality" value="Quality" style="rounded=1;whiteSpace=wrap;html=1;fillColor=#f8cecc;strokeColor=#b85450;fontSize=10;" vertex="1" parent="1">
          <mxGeometry x="900" y="400" width="60" height="25" as="geometry" />
        </mxCell>
        
        <mxCell id="legend-deploy" value="Deploy" style="rounded=1;whiteSpace=wrap;html=1;fillColor=#d5e8d4;strokeColor=#82b366;fontSize=10;" vertex="1" parent="1">
          <mxGeometry x="900" y="435" width="60" height="25" as="geometry" />
        </mxCell>
        
        <mxCell id="legend-approval" value="Approval" style="rounded=1;whiteSpace=wrap;html=1;fillColor=#ffcc99;strokeColor=#d79b00;fontSize=10;" vertex="1" parent="1">
          <mxGeometry x="900" y="470" width="60" height="25" as="geometry" />
        </mxCell>
        
      </root>
    </mxGraphModel>
  </diagram>
</mxfile>
